# xmcd
#
# Track frame offsets:
#	150
#	14710
#	26525
#	47330
#	61510
#	75825
#	92035
#	105740
#	118032
#	137110
#
# Disc length: 2082 seconds
#
# Revision: 0
# Processed by: cddbd v1.5.2PL0 Copyright (c) Steve Scherf et al.
# Submitted via: dBpowerAMP V4.0
#
DISCID=7108200a
DTITLE=Melpo Mene - HOLES
DYEAR=2004
DGENRE=Blues
TTITLE0=I should get away
TTITLE1=Holes
TTITLE2=Hello Benjamin
TTITLE3=Good with the mothers
TTITLE4=To be someone
TTITLE5=Lady
TTITLE6=Dream about me
TTITLE7=Wait up
TTITLE8=Tropical island
TTITLE9=don't save me
EXTD=
EXTT0=
EXTT1=
EXTT2=
EXTT3=
EXTT4=
EXTT5=
EXTT6=
EXTT7=
EXTT8=
EXTT9=
PLAYORDER=
